<svg xmlns="http://www.w3.org/2000/svg" viewBox="0 0 79.22 126.01"><defs><style>.cls-1{fill:#f69ba4;}.cls-2{fill:#992534;}.cls-3{fill:#b84e64;}.cls-4{fill:#c42733;}.cls-5{fill:#ffc20d;}</style></defs><title>USC-book</title><g id="Layer_2" data-name="Layer 2"><g id="Crop_marks" data-name="Crop marks"><path class="cls-1" d="M4.17,21.79,57.41.12A1.69,1.69,0,0,1,59.55,1c1.34,2.47,5.66,7.34,19.17,8.71L43.35,24.5,18.69,31.7c-.6.2-2.1-1-2.72-1.08C13.07,30.46,6.61,29.39,4.17,21.79Z"/><path class="cls-2" d="M4.17,21.39S5.29,34,26.43,28.8L78.73,9.67S75.94,97.9,74.27,98.83L22.81,121.66S3.62,132.76,0,119.5C0,119.5.83,25.4,4.17,21.39Z"/><path class="cls-3" d="M4.75,23.55C22.91,15.62,41.24,8.33,59.81,1.44c.11,0,.07-.23-.05-.18-18.67,6.52-37.07,14-55.08,22.15-.09,0,0,.18.08.14Z"/><path class="cls-3" d="M6.05,25.36C24.24,17.5,42.61,10.27,61.2,3.44c.11,0,.07-.22-.05-.18C42.46,9.71,24,17.13,6,25.22c-.09,0,0,.18.08.14Z"/><path class="cls-3" d="M7.44,27c18.15-7.92,36.49-15.21,55.05-22.1.11,0,.07-.23-.05-.18-18.67,6.52-37.07,14-55.08,22.15-.09,0,0,.18.08.14Z"/><path class="cls-3" d="M9.59,27.78C27.77,19.92,46.14,12.69,64.73,5.85c.11,0,.07-.22-.05-.18C46,12.13,27.55,19.55,9.5,27.64c-.09,0,0,.18.08.14Z"/><path class="cls-3" d="M11.3,29.18C29.49,21.32,47.86,14.09,66.45,7.26c.11,0,.07-.22-.05-.18C47.71,13.53,29.27,21,11.22,29c-.09,0,0,.18.08.14Z"/><path class="cls-3" d="M13.91,30.07C32.1,22.21,50.46,15,69.06,8.14c.11,0,.07-.22-.05-.18-18.69,6.46-37.13,13.88-55.18,22-.09,0,0,.18.08.14Z"/><path class="cls-3" d="M17.58,30.64C35.77,22.78,54.14,15.55,72.73,8.72c.11,0,.07-.22-.05-.18C54,15,35.55,22.41,17.5,30.5c-.09,0,0,.18.08.14Z"/><polygon class="cls-4" points="74.77 98.52 19.62 123.13 21.36 30.26 79.22 9.36 74.77 98.52"/><path class="cls-3" d="M24,29.65c16.8-7.31,33.76-14,50.93-20.41.11,0,.07-.23-.05-.18-17.27,6-34.3,12.92-51,20.46-.09,0,0,.18.08.14Z"/><path class="cls-5" d="M27,53.58c-.64,5.44-1.36,11.59.87,16.79,1.09,2.54,3.37,5.53,6.55,4.41s4.68-6.26,5.34-9.19c1-4.51,1.49-10,.41-14.48-.26-1.09-2.15-1.21-2.33,0-.86,5.85.6,11.69-2.11,17.29-3,6.2-5.24-1.27-5.59-4.51a49.49,49.49,0,0,1,.29-10.3c.22-2.21-3.18-2.16-3.43,0Z"/><path class="cls-5" d="M55.8,48.78c-3-4.94-10.72-3.88-11.45,2.18A6.47,6.47,0,0,0,48,57.54c1.64.9,4.22,1.17,5.47,2.56,1.92,2.14-.36,4.6-2.75,4.59A7,7,0,0,1,46.25,63c-1.5-1.22-3.63.8-2.16,2.16,3.58,3.34,13,4,13.48-2.68.21-2.8-2.24-4.82-4.56-5.86S47.17,55.15,46.94,52c-.28-4,4.74-5,6.9-2,.84,1.15,2.73.13,2-1.14Z"/><path class="cls-5" d="M70.22,42.84C68,40.4,65,40.69,62.71,42.95c-2.92,2.93-3.88,7.71-3.48,11.68C59.59,58.1,61.11,63,65,64c3.23.84,7.3-1.64,8-4.86a1.11,1.11,0,0,0-1.35-1.35c-1.47.48-1.74,1-3.17,1.82-2.88,1.7-4.42-.88-5.11-3.35A14.66,14.66,0,0,1,63,49.91c.26-1.48,2.36-8.4,5.49-5.38a1.2,1.2,0,0,0,1.7-1.7Z"/></g></g></svg>