<svg xmlns="http://www.w3.org/2000/svg" viewBox="0 0 170.94 268.44"><defs><style>.cls-1{fill:#5b1017;}</style></defs><title>tommy-trojan_1</title><g id="Layer_2" data-name="Layer 2"><g id="Crop_marks" data-name="Crop marks"><path class="cls-1" d="M24.26,268.36a85.94,85.94,0,0,0-1.55-17.69,20.83,20.83,0,0,1,1.74-13.83c6.15-12.35,17.19-36.19,15.39-44.66,0,0,14.64,25.41,18.07,43.87a12.2,12.2,0,0,1-2.63,10.05,61.11,61.11,0,0,0-11.2,21c24.66-.32,49.51.55,74.29,1.35a53,53,0,0,1-3.25-12.32c-.83-6-.63-12.3,1.72-17.72a46,46,0,0,0,2.7-8.74c.93-4.37,2.56-10.48,5-15.19,0,0,1.09,10,5.94,13.54a14.77,14.77,0,0,1,2.21,2c1.65,1.81,6.28,4.9,18.5,4.44,0,0-.23,3.52,1.22,3.9,0,0,1.15.37,2.11,3.67,0,0,2.41,3.88,11.27,3.81a4.47,4.47,0,0,0,3.37-1.47c.79-.91,1.2-2.23-.28-3.84,0,0,4-1.65.74-5.2,0,0,2.64-4-2.06-5.28a4.56,4.56,0,0,0,1.42-1.47,2.75,2.75,0,0,0-.37-3.51c-1.46-1.43-4.64-3.71-10.36-4.28,0,0-12.46-9.55-17.79-14.6-8.3-7.85,6-43.75-17.74-64.78q-1.65-1.47-3.23-3a50.57,50.57,0,0,0-16.35-10.5c-1.75-.71-8.89-2.26-9.35-4.09-.93-3.69-1.92-9.76-.14-14.45,0,0,9.29-1.07,15.11-5.84a5,5,0,0,0,1.5-5.5c-1.22-3.61-2.69-9.74.16-12.24,0,0-.5-.88-3-1.32,0,0,6.35-2.67,6-5.79,0,0-4.1-10.37-10.42-12.47,0,0,2-4.08.61-5,0,0,8.86-6.72,9.08-10.08,0,0-3.29-5.55-20.38-6.1,0,0-4-13.16-3.19-18.54,0,0,4.4-1.69,3.19-4.73,0,0-4.12-3.72-2-6.05l10.12-2.9L101,4.52S50.37-12.77,24.9,20.27c0,0-19.2,16.36-6.8,104.19,0,0,1,16.64-18.05,22.65l2.46,10s39.49-9.86,35-51.59c0,0-4.68-23.61,9.67-21.12,0,0,9.81,8.41,8.44,13.5a35.63,35.63,0,0,1-2.19,9.7s-2.33,4,1.24,4.74c0,0,.55,2.18,9.68-3.08,0,0,8.87,19-23.46,34.07,0,0-16,7.63-22.15,34.19A14.38,14.38,0,0,1,16,183.17c-3.22,4.08-9.66,15.28-14.62,43.37a134.93,134.93,0,0,0,.36,40.4,8.22,8.22,0,0,1,1.26.62C10.07,267.46,17.17,266.8,24.26,268.36Z"/></g></g></svg>