<svg width="21" height="21" viewBox="0 0 21 21" fill="none" xmlns="http://www.w3.org/2000/svg">
<path d="M10.5 0C4.70995 0 0 4.70995 0 10.5C0 16.2901 4.70995 21 10.5 21C16.2901 21 21 16.2892 21 10.5C21 4.71077 16.2901 0 10.5 0ZM10.5 19.3734C5.60786 19.3734 1.62664 15.393 1.62664 10.5C1.62664 5.60704 5.60786 1.62664 10.5 1.62664C15.3921 1.62664 19.3734 5.60704 19.3734 10.5C19.3734 15.393 15.393 19.3734 10.5 19.3734Z" fill="#B51F36"/>
<path d="M14.5666 9.61349H11.3133V6.36021C11.3133 5.91126 10.9498 5.54688 10.5 5.54688C10.0502 5.54688 9.68664 5.91126 9.68664 6.36021V9.61349H6.43337C5.98359 9.61349 5.62003 9.97788 5.62003 10.4268C5.62003 10.8758 5.98359 11.2402 6.43337 11.2402H9.68664V14.4935C9.68664 14.9424 10.0502 15.3068 10.5 15.3068C10.9498 15.3068 11.3133 14.9424 11.3133 14.4935V11.2402H14.5666C15.0164 11.2402 15.3799 10.8758 15.3799 10.4268C15.3799 9.97788 15.0164 9.61349 14.5666 9.61349Z" fill="#B51F36"/>
</svg>
