<svg width="19" height="19" viewBox="0 0 19 19" fill="none" xmlns="http://www.w3.org/2000/svg">
<path d="M15.1035 1.70703H3.89648C1.74791 1.70703 0 3.45494 0 5.60352V11.6216C0 13.336 1.1256 14.8293 2.75668 15.3072L4.63853 17.1892C4.74304 17.2935 4.88452 17.3523 5.03223 17.3523C5.1798 17.3523 5.32143 17.2935 5.4258 17.1892L7.15211 15.4627H15.1035C17.2521 15.4627 19 13.7148 19 11.5662V5.60352C19 3.45494 17.2521 1.70703 15.1035 1.70703ZM5.40898 9.56871C5.40898 9.26125 5.65816 9.01207 5.96562 9.01207H13.0344C13.3418 9.01207 13.591 9.26125 13.591 9.56871C13.591 9.87617 13.3418 10.1253 13.0344 10.1253H5.96562C5.65816 10.1253 5.40898 9.87617 5.40898 9.56871ZM13.0344 8.15768H5.96562C5.65816 8.15768 5.40898 7.9085 5.40898 7.60104C5.40898 7.29373 5.65816 7.0444 5.96562 7.0444H13.0344C13.3418 7.0444 13.591 7.29373 13.591 7.60104C13.591 7.9085 13.3418 8.15768 13.0344 8.15768Z" fill="#B92A33"/>
</svg>
