<svg width="20" height="20" viewBox="0 0 20 20" fill="none" xmlns="http://www.w3.org/2000/svg">
<g clip-path="url(#clip0)">
<path d="M15.8709 10.5676H18.2193C18.5435 10.5676 18.8064 10.3048 18.8064 9.98052V0.587105C18.8064 0.262887 18.5435 -2.86102e-06 18.2193 -2.86102e-06H15.8709C15.5467 -2.86102e-06 15.2838 0.262848 15.2838 0.587105L15.2838 9.98056C15.2838 10.3048 15.5466 10.5676 15.8709 10.5676Z" fill="#C4C4C4"/>
<path d="M1.20531 9.01142C1.30886 9.92216 2.1596 10.5677 3.0762 10.5677L7.65334 10.5677C7.26436 11.2642 7.05557 13.2342 7.06483 14.039C7.08018 15.3711 8.18334 16.4386 9.51549 16.4386H9.99994C10.3244 16.4386 10.587 16.176 10.587 15.8515C10.587 14.4939 11.1157 12.0434 12.1127 11.0464C12.7837 10.3753 13.3574 10.1322 14.1096 9.75623L14.1096 0.946948C12.9579 0.563082 11.4957 -1.90735e-06 9.26689 -1.90735e-06H5.42643C4.16101 -1.90735e-06 3.17546 1.17199 3.66581 2.41027C2.91874 2.61378 2.36781 3.29894 2.36781 4.10964C2.36781 4.33843 2.41195 4.55741 2.49164 4.75866C1.23269 5.10167 0.769295 6.65616 1.64308 7.63221C1.32207 7.99084 1.14504 8.48139 1.20531 9.01142Z" fill="#C4C4C4"/>
</g>
<defs>
<clipPath id="clip0">
<rect width="20" height="20" fill="white" transform="translate(20 20) rotate(180)"/>
</clipPath>
</defs>
</svg>
