<svg width="20" height="20" viewBox="0 0 20 20" fill="none" xmlns="http://www.w3.org/2000/svg">
<g clip-path="url(#clip0)">
<path d="M15.8709 10.5676H18.2193C18.5435 10.5676 18.8064 10.3048 18.8064 9.98052V0.587105C18.8064 0.262887 18.5435 -2.86102e-06 18.2193 -2.86102e-06H15.8709C15.5467 -2.86102e-06 15.2838 0.262848 15.2838 0.587105L15.2838 9.98056C15.2838 10.3048 15.5466 10.5676 15.8709 10.5676Z" fill="#B92A33"/>
<path d="M1.20537 9.01142C1.30893 9.92216 2.15967 10.5677 3.07627 10.5677L7.6534 10.5677C7.26442 11.2642 7.05563 13.2342 7.06489 14.039C7.08024 15.3711 8.1834 16.4386 9.51555 16.4386H10C10.3245 16.4386 10.5871 16.176 10.5871 15.8515C10.5871 14.4939 11.1157 12.0434 12.1127 11.0464C12.7838 10.3753 13.3575 10.1322 14.1097 9.75623L14.1097 0.946948C12.958 0.563082 11.4957 -1.90735e-06 9.26696 -1.90735e-06H5.42649C4.16107 -1.90735e-06 3.17552 1.17199 3.66587 2.41027C2.9188 2.61378 2.36787 3.29894 2.36787 4.10964C2.36787 4.33843 2.41201 4.55741 2.4917 4.75866C1.23275 5.10167 0.769356 6.65616 1.64314 7.63221C1.32213 7.99084 1.1451 8.48139 1.20537 9.01142Z" fill="#B92A33"/>
</g>
<defs>
<clipPath id="clip0">
<rect width="20" height="20" fill="white" transform="translate(20 20) rotate(180)"/>
</clipPath>
</defs>
</svg>
