<svg width="30" height="26" viewBox="0 0 30 26" fill="none" xmlns="http://www.w3.org/2000/svg">
<path d="M29.3825 22.123C29.1529 22.123 28.9367 22.0112 28.8307 21.8274C28.7952 21.768 25.9672 17.2235 14.1659 17.0689V21.5883C14.1659 21.792 14.0322 21.9779 13.8216 22.0677C13.6113 22.1575 13.3607 22.1366 13.1734 22.0129L0.242491 13.4245C0.090094 13.3232 0 13.1665 0 13.0005C0 12.8336 0.090094 12.677 0.242491 12.5755L13.174 3.98738C13.3616 3.86339 13.6119 3.84243 13.8222 3.93182C14.0328 4.02103 14.1665 4.20771 14.1665 4.41083V9.17362C14.4786 9.15641 14.8853 9.14145 15.3651 9.14145C19.7656 9.14145 30 10.3546 30 21.5872C30 21.8357 29.803 22.0518 29.5234 22.1083C29.4764 22.1188 29.43 22.123 29.3825 22.123Z" fill="#B55353"/>
</svg>
