<svg width="50" height="50" viewBox="0 0 50 50" fill="none" xmlns="http://www.w3.org/2000/svg">
<path d="M25 50C38.8071 50 50 38.8071 50 25C50 11.1929 38.8071 0 25 0C11.1929 0 0 11.1929 0 25C0 38.8071 11.1929 50 25 50Z" fill="#FFC61B"/>
<path d="M50 25C50 24.3979 49.9774 23.8012 49.9355 23.2098L36.5891 9.86328L31.2676 14.5027L9.86328 27.7199L13.4109 31.2355V40.1367L23.2098 49.9355C23.8012 49.9773 24.3979 50 25 50C38.8071 50 50 38.8071 50 25Z" fill="#D48B07"/>
<path d="M40.1367 21.068V27.7198H25.8514C25.8514 27.7198 25.6385 27.7198 25 27.7198H9.86328V21.068L25 9.86328L40.1367 21.068Z" fill="#FF3636"/>
<path d="M31.2676 9.86328V16.1899L36.5891 20.6245V9.86328H31.2676Z" fill="#BABAC0"/>
<path d="M40.1367 21.068V27.7198H25.8514C25.8514 27.7198 25.6385 27.7198 25 27.7198V9.86328L40.1367 21.068Z" fill="#F40000"/>
<path d="M25 14.2032L13.4109 22.8418V40.1367H36.589V22.8418L25 14.2032Z" fill="#E7E7E7"/>
<path d="M36.5891 22.8418V40.1367H25V14.2032L36.5891 22.8418Z" fill="#D3D3D8"/>
<path d="M25 25.946C22.5521 25.946 20.5654 27.9328 20.5654 30.3806V40.1367H29.4346V30.3806C29.4346 27.9327 27.4479 25.946 25 25.946Z" fill="#5A5A5A"/>
<path d="M29.4346 30.3806V40.1367H25V25.946C27.4479 25.946 29.4346 27.9327 29.4346 30.3806Z" fill="#444444"/>
</svg>
