<svg width="21" height="21" viewBox="0 0 21 21" fill="none" xmlns="http://www.w3.org/2000/svg">
<path d="M10.4996 0C4.70133 0 0 4.70133 0 10.4996C0 16.2978 4.70133 21 10.4996 21C16.2978 21 21 16.2978 21 10.4996C21 4.70133 16.2978 0 10.4996 0ZM12.6853 16.2729C12.1449 16.4862 11.7147 16.648 11.392 16.76C11.0702 16.872 10.696 16.928 10.2702 16.928C9.616 16.928 9.10667 16.768 8.744 16.4489C8.38133 16.1298 8.20089 15.7253 8.20089 15.2338C8.20089 15.0427 8.21422 14.8471 8.24089 14.648C8.26844 14.4489 8.312 14.2249 8.37156 13.9733L9.048 11.584C9.10756 11.3547 9.15911 11.1369 9.2 10.9342C9.24089 10.7298 9.26044 10.5422 9.26044 10.3716C9.26044 10.0676 9.19733 9.85422 9.072 9.73422C8.94489 9.61422 8.70578 9.55556 8.34933 9.55556C8.17511 9.55556 7.99556 9.58133 7.81156 9.63556C7.62933 9.69156 7.47111 9.74222 7.34133 9.792L7.52 9.056C7.96267 8.87556 8.38667 8.72089 8.79111 8.59289C9.19556 8.46311 9.57778 8.39911 9.93778 8.39911C10.5876 8.39911 11.0889 8.55733 11.4418 8.87022C11.7929 9.184 11.9698 9.592 11.9698 10.0933C11.9698 10.1973 11.9573 10.3804 11.9333 10.6418C11.9093 10.904 11.864 11.1431 11.7982 11.3627L11.1253 13.7449C11.0702 13.936 11.0213 14.1547 10.9769 14.3991C10.9333 14.6436 10.912 14.8302 10.912 14.9556C10.912 15.272 10.9822 15.488 11.1244 15.6027C11.2649 15.7173 11.5111 15.7751 11.8596 15.7751C12.024 15.7751 12.208 15.7458 12.416 15.6889C12.6222 15.632 12.7716 15.5813 12.8658 15.5378L12.6853 16.2729ZM12.5662 6.60356C12.2524 6.89511 11.8747 7.04089 11.4329 7.04089C10.992 7.04089 10.6116 6.89511 10.2951 6.60356C9.98044 6.312 9.82133 5.95733 9.82133 5.54311C9.82133 5.12978 9.98133 4.77422 10.2951 4.48C10.6116 4.18489 10.992 4.03822 11.4329 4.03822C11.8747 4.03822 12.2533 4.18489 12.5662 4.48C12.88 4.77422 13.0373 5.12978 13.0373 5.54311C13.0373 5.95822 12.88 6.312 12.5662 6.60356Z" fill="#B51F36"/>
</svg>
