<svg width="50" height="50" viewBox="0 0 50 50" fill="none" xmlns="http://www.w3.org/2000/svg">
<path d="M25 50C38.8071 50 50 38.8071 50 25C50 11.1929 38.8071 0 25 0C11.1929 0 0 11.1929 0 25C0 38.8071 11.1929 50 25 50Z" fill="#FFC61B"/>
<path d="M49.6704 20.9421L39.0723 10.3441L10.0134 40.1884L19.1304 49.3053C21.013 49.7582 22.9783 50 25 50C38.807 50 50 38.807 50 25C50 23.6181 49.886 22.263 49.6704 20.9421Z" fill="#D48B07"/>
<path d="M10.3903 40.5649L11.8089 39.8555L10.5448 38.5916L9.83557 40.0104L10.3903 40.5649Z" fill="#366695"/>
<path d="M10.0094 40.1843L10.3902 40.5649L11.8088 39.8555L11.0693 39.116L10.0094 40.1843Z" fill="#273B7A"/>
<path d="M11.8284 40.4079L16.5265 38.0589L12.3412 33.8735L9.99231 38.5717L11.8284 40.4079Z" fill="#38C6D9"/>
<path d="M10.804 39.3834L11.8284 40.4079L16.5264 38.0588L14.3134 35.8459L10.804 39.3834Z" fill="#19B0BC"/>
<path d="M41.8015 13.0733L37.3269 8.59866C37.206 8.47766 37.0419 8.40979 36.8709 8.40979C36.6998 8.40979 36.5358 8.47766 36.4148 8.59866L11.4177 33.5958C11.2968 33.7167 11.2289 33.8809 11.2289 34.0519C11.2289 34.2229 11.2968 34.3869 11.4177 34.5079L15.8924 38.9823C16.0182 39.1082 16.1835 39.1712 16.3484 39.1712C16.5134 39.1712 16.6786 39.1082 16.8045 38.9823L41.8015 13.9854C42.0534 13.7335 42.0534 13.3251 41.8015 13.0733Z" fill="#366695"/>
<path d="M41.8015 13.0732L39.3439 10.6156L13.5377 36.6277L15.8923 38.9823C16.0182 39.1082 16.1834 39.1712 16.3484 39.1712C16.5133 39.1712 16.6785 39.1082 16.8044 38.9823L41.8015 13.9853C42.0535 13.7335 42.0535 13.3251 41.8015 13.0732Z" fill="#273B7A"/>
<path d="M41.8014 13.0733C41.8014 13.0733 37.2218 8.49351 37.2002 8.47192C36.1969 7.4687 34.5644 7.4689 33.5612 8.47212L24.728 17.3054C24.4759 17.5573 24.4759 17.9657 24.728 18.2175C24.8539 18.3434 25.0191 18.4064 25.184 18.4064C25.349 18.4064 25.5142 18.3434 25.6401 18.2175L34.4733 9.38433C34.8573 9.00034 35.4258 8.91206 35.8959 9.11763L25.9279 19.0857L31.3144 24.4724L41.8014 13.9855C42.0535 13.7335 42.0535 13.3251 41.8014 13.0733Z" fill="#273B7A"/>
<path d="M41.8014 13.0732C41.8014 13.0732 40.5442 11.8158 39.344 10.6156L28.4446 21.6021L31.3146 24.4721L41.8016 13.9853C42.0535 13.7335 42.0535 13.3251 41.8014 13.0732Z" fill="#121149"/>
</svg>
