<svg width="14" height="14" viewBox="0 0 14 14" fill="none" xmlns="http://www.w3.org/2000/svg">
<path d="M14 7C14 10.866 10.866 14 7 14C3.13396 14 0 10.866 0 7C0 3.13396 3.13396 0 7 0C10.866 0 14 3.13396 14 7Z" fill="#B92A33"/>
<path d="M7 12.4688C3.9845 12.4688 1.53125 10.0155 1.53125 7C1.53125 3.9845 3.9845 1.53125 7 1.53125C10.0155 1.53125 12.4688 3.9845 12.4688 7C12.4688 10.0155 10.0155 12.4688 7 12.4688ZM7 2.35156C4.43684 2.35156 2.35156 4.43684 2.35156 7C2.35156 9.56316 4.43684 11.6484 7 11.6484C9.56316 11.6484 11.6484 9.56316 11.6484 7C11.6484 4.43684 9.56316 2.35156 7 2.35156Z" fill="white"/>
<path d="M7 8.74984C6.77345 8.74984 6.58984 8.56623 6.58984 8.33968V7.26804C6.58984 7.04149 6.77345 6.85788 7 6.85788C7.483 6.85788 7.87596 6.46492 7.87596 5.98192C7.87596 5.49892 7.483 5.10596 7 5.10596C6.517 5.10596 6.12404 5.49892 6.12404 5.98192C6.12404 6.20847 5.94043 6.39208 5.71388 6.39208C5.48744 6.39208 5.30373 6.20847 5.30373 5.98192C5.30373 5.04657 6.06465 4.28564 7 4.28564C7.93535 4.28564 8.69627 5.04657 8.69627 5.98192C8.69627 6.77585 8.1479 7.44406 7.41016 7.62799V8.33968C7.41016 8.56623 7.22655 8.74984 7 8.74984Z" fill="white"/>
<path d="M7.53587 9.62578C7.53587 9.92175 7.29597 10.1617 7 10.1617C6.70403 10.1617 6.46413 9.92175 6.46413 9.62578C6.46413 9.3298 6.70403 9.0899 7 9.0899C7.29597 9.0899 7.53587 9.3298 7.53587 9.62578Z" fill="white"/>
</svg>
