<svg width="19" height="17" viewBox="0 0 19 17" fill="none" xmlns="http://www.w3.org/2000/svg">
<path d="M15.1035 0.707031H3.89648C1.74791 0.707031 0 2.45494 0 4.60352V10.6216C0 12.336 1.1256 13.8293 2.75668 14.3072L4.63853 16.1892C4.74304 16.2935 4.88452 16.3523 5.03223 16.3523C5.1798 16.3523 5.32143 16.2935 5.4258 16.1892L7.15211 14.4627H15.1035C17.2521 14.4627 19 12.7148 19 10.5662V4.60352C19 2.45494 17.2521 0.707031 15.1035 0.707031ZM5.40898 8.56871C5.40898 8.26125 5.65816 8.01207 5.96562 8.01207H13.0344C13.3418 8.01207 13.591 8.26125 13.591 8.56871C13.591 8.87617 13.3418 9.12535 13.0344 9.12535H5.96562C5.65816 9.12535 5.40898 8.87617 5.40898 8.56871ZM13.0344 7.15768H5.96562C5.65816 7.15768 5.40898 6.9085 5.40898 6.60104C5.40898 6.29373 5.65816 6.0444 5.96562 6.0444H13.0344C13.3418 6.0444 13.591 6.29373 13.591 6.60104C13.591 6.9085 13.3418 7.15768 13.0344 7.15768Z" fill="#B92A33"/>
</svg>
