<svg width="37" height="37" viewBox="0 0 37 37" fill="none" xmlns="http://www.w3.org/2000/svg">
<path d="M18.5 37C28.7173 37 37 28.7173 37 18.5C37 8.28273 28.7173 0 18.5 0C8.28273 0 0 8.28273 0 18.5C0 28.7173 8.28273 37 18.5 37Z" fill="#FEDD55"/>
<path d="M37 18.5C37 16.4369 36.6619 14.4528 36.0387 12.5997L30.2333 6.79434L6.76666 30.2609L12.5317 36.0157C14.4043 36.6536 16.4117 37 18.5 37C28.7173 37 37 28.7173 37 18.5Z" fill="#FCC63D"/>
<path d="M22.2 21.5833C25.9463 21.5833 28.9833 18.5463 28.9833 14.8C28.9833 11.0537 25.9463 8.01668 22.2 8.01668C18.4536 8.01668 15.4166 11.0537 15.4166 14.8C15.4166 18.5463 18.4536 21.5833 22.2 21.5833Z" fill="#5EEFEE"/>
<path d="M26.9732 19.5728C24.2926 22.2534 19.9468 22.2534 17.2666 19.5733L26.9732 9.86667C29.6533 12.5468 29.6533 16.8927 26.9732 19.5728Z" fill="#54C9FC"/>
<path d="M15.0608 18.2853L18.7394 21.9639L12.4059 28.2974L8.72727 24.6188L15.0608 18.2853Z" fill="#FF807D"/>
<path d="M10.5613 26.4615L16.8952 20.1276L18.7345 21.9669L12.4006 28.3008L10.5613 26.4615Z" fill="#FC3E53"/>
<path d="M15.7191 21.3086C12.1188 17.7084 12.1188 11.8504 15.7191 8.25018C19.3193 4.64994 25.1773 4.64994 28.7776 8.25018C32.3778 11.8504 32.3778 17.7084 28.7776 21.3087C25.1773 24.9088 19.3193 24.9088 15.7191 21.3086ZM26.4386 10.5891C24.1281 8.2785 20.3685 8.2785 18.058 10.5891C15.7474 12.8996 15.7474 16.6591 18.058 18.9697C20.3685 21.2804 24.1281 21.2803 26.4386 18.9697C28.7491 16.6592 28.7492 12.8996 26.4386 10.5891Z" fill="#776D6B"/>
<path d="M28.7773 8.25038L26.4384 10.5893C28.7488 12.8996 28.7492 16.6592 26.4389 18.9695C24.128 21.2804 20.3685 21.2799 18.0581 18.9695L15.7193 21.3084C16.3012 21.8903 16.9425 22.3782 17.6236 22.7721C21.1544 24.8144 25.7592 24.3269 28.7778 21.3084C32.3778 17.7084 32.3773 11.8504 28.7773 8.25038Z" fill="#57555C"/>
<path d="M6.76664 30.261C5.75066 29.245 5.75066 27.5977 6.76664 26.5818L8.91286 24.4355L12.5921 28.1147L10.4458 30.2609C9.42985 31.2769 7.78263 31.2769 6.76664 30.261Z" fill="#776D6B"/>
<path d="M12.592 28.1148L10.4458 30.2609C9.42998 31.2768 7.78254 31.2768 6.76663 30.2609L10.7524 26.2752L12.592 28.1148Z" fill="#57555C"/>
</svg>
