<svg width="50" height="50" viewBox="0 0 50 50" fill="none" xmlns="http://www.w3.org/2000/svg">
<path d="M25 50C38.8071 50 50 38.8071 50 25C50 11.1929 38.8071 0 25 0C11.1929 0 0 11.1929 0 25C0 38.8071 11.1929 50 25 50Z" fill="#FFC61B"/>
<path d="M49.5142 29.9234C46.7272 27.136 30.4863 10.8956 30.4863 10.8956L19.6203 27.5349C19.6203 27.5349 21.1314 29.0469 21.1548 29.0701V29.7424L11.5417 41.4063L19.5346 49.3992C21.2939 49.7915 23.1225 50 25 50C37.1217 50 47.2274 41.3725 49.5142 29.9234Z" fill="#D48B07"/>
<path d="M28.8452 26.5894V31.665L25 35.5103L21.1548 31.665V26.5894L22.539 27.2622C24.0579 27.9928 25.942 27.9928 27.4609 27.2622L28.8452 26.5894Z" fill="#EFBEAA"/>
<path d="M28.8452 31.665V26.5894L27.461 27.2622C26.7016 27.6275 25.8508 27.8102 25 27.8102V35.5103L28.8452 31.665Z" fill="#E19480"/>
<path d="M27.8839 12.439C26.5766 12.439 25.3845 12.9389 24.5001 13.8425C23.3658 14.9576 21.5586 16.2842 19.2514 16.2842L17.3096 18.2068V22.0521C17.3096 25.0128 19.0399 27.7237 21.6932 28.9927C22.7121 29.4926 23.8272 29.7425 25 29.7425C26.1728 29.7425 27.2879 29.4925 28.2877 28.9927C30.9601 27.7238 32.6904 25.0129 32.6904 22.0521V19.1682C32.6904 16.5148 30.5371 12.439 27.8839 12.439Z" fill="#F7E0BA"/>
<path d="M27.8839 12.439C26.8041 12.439 25.8142 12.7967 25 13.4244V29.7424C26.1728 29.7424 27.2879 29.4924 28.2877 28.9926C30.9601 27.7237 32.6904 25.0128 32.6904 22.052V19.1681C32.6904 16.5148 30.5371 12.439 27.8839 12.439Z" fill="#EFBEAA"/>
<path d="M21.1548 20.1294H23.0773V22.0521H21.1548V20.1294Z" fill="#54747F"/>
<path d="M26.9227 20.1294H28.8454V22.0521H26.9227V20.1294Z" fill="#455E72"/>
<path d="M38.4582 38.3942V41.4063H25V33.5878L28.8452 29.7426H29.8065C34.5745 29.7425 38.4582 33.6261 38.4582 38.3942Z" fill="#7CCBBF"/>
<path d="M25.0001 33.5877V41.4063H11.5417V38.3942C11.5417 33.626 15.4254 29.7424 20.1935 29.7424H21.1548L25.0001 33.5877Z" fill="#94E5CF"/>
<path d="M32.6904 16.2842V19.1681C32.6904 16.5148 30.5371 14.3615 27.8839 14.3615C26.8092 14.3615 25.8119 14.6992 25 15.3222C24.8244 15.4567 24.6571 15.6041 24.5001 15.765C23.3657 16.8802 21.5585 18.2067 19.2514 18.2067H17.3096V16.2842C17.3096 12.0353 20.7511 8.59375 25 8.59375C29.2489 8.59375 32.6904 12.0353 32.6904 16.2842Z" fill="#54747F"/>
<path d="M32.6904 16.2842V19.1681C32.6904 16.5148 30.5371 14.3615 27.8839 14.3615C26.8092 14.3615 25.8119 14.6992 25 15.3222V8.59375C29.2489 8.59375 32.6904 12.0353 32.6904 16.2842Z" fill="#455E72"/>
</svg>
